<svg width="193" height="35" viewBox="0 0 193 35" fill="none" xmlns="http://www.w3.org/2000/svg">
<g id="Layer_1" clip-path="url(#clip0_1_4)">
<path id="Vector" d="M41.7406 10.4328C41.7406 3.55664 37.0903 0 27.7502 0H5.17064V5.49962H0V34.0516H11.1449V24.4223H26.6568C29.6933 24.4223 30.543 25.3246 30.543 28.3609V34.0516H41.6879V26.5563C41.6879 22.3805 38.9346 19.8711 34.5741 19.5879C39.1717 18.2113 41.734 15.1289 41.734 10.4328H41.7406ZM25.0957 15.5043H11.1515V8.91137H25.0957C28.0861 8.91137 30.1215 9.43169 30.1215 12.1848C30.1215 14.9379 28.0796 15.5043 25.0957 15.5043Z" fill="#FFFFFA"/>
<path id="Vector_2" d="M47.3328 34.0516H82.144V25.6605H58.4776V20.8195H81.1955V13.1859H58.4776V8.39763H82.144V0H47.3328V34.0516Z" fill="#FFFFFA"/>
<path id="Vector_3" d="M136.419 0V17.0258C136.419 21.2476 134.568 25.6078 126.888 25.6078C119.208 25.6078 117.311 21.2938 117.311 17.0258V0H106.166V17.4078C106.166 28.8352 112.285 35 126.895 35C141.504 35 147.623 28.8352 147.623 17.4078V0H136.433H136.419Z" fill="#FFFFFA"/>
<path id="Vector_4" d="M101.766 13.4494H86.5309V20.9183H101.766V13.4494Z" fill="#FFFFFA"/>
<path id="Vector_5" d="M179.339 0H157.952V5.49962H152.689V34.0516H163.834V25.6078H179.346C187.836 25.6078 193.007 20.8195 193.007 12.8039C193.007 4.7883 187.836 0 179.346 0H179.339ZM176.684 16.2683H163.834V9.39217H176.684C179.859 9.39217 181.381 10.0113 181.381 12.8039C181.381 15.5965 179.866 16.2683 176.684 16.2683Z" fill="#FFFFFA"/>
</g>
<defs>
<clipPath id="clip0_1_4">
<rect width="193" height="35" fill="white"/>
</clipPath>
</defs>
</svg>
